<?xml version="1.0" standalone="no"?><!-- Created with ZXing.Net (http://zxingnet.codeplex.com/) --><!DOCTYPE svg PUBLIC "-//W3C//DTD SVG 1.1//EN" "http://www.w3.org/Graphics/SVG/1.1/DTD/svg11.dtd"><svg xmlns="http://www.w3.org/2000/svg" version="1.2" baseProfile="tiny" shape-rendering="crispEdges" viewBox="0 0 1024 1024" viewport-fill="rgb(255,255,255)" viewport-fill-opacity="1" fill="rgb(0,0,0)" fill-opacity="1" style="background-color:rgb(255,255,255);background-color:rgba(255, 255, 255, 1);"><rect x="74" y="74" width="35" height="245"/><rect x="74" y="354" width="35" height="70"/><rect x="74" y="459" width="35" height="210"/><rect x="74" y="704" width="35" height="245"/><rect x="109" y="74" width="210" height="35"/><rect x="109" y="284" width="210" height="35"/><rect x="109" y="389" width="35" height="70"/><rect x="109" y="494" width="210" height="35"/><rect x="109" y="704" width="210" height="35"/><rect x="109" y="914" width="210" height="35"/><rect x="144" y="144" width="105" height="105"/><rect x="144" y="354" width="35" height="70"/><rect x="144" y="599" width="70" height="35"/><rect x="144" y="774" width="105" height="105"/><rect x="179" y="354" width="140" height="35"/><rect x="179" y="424" width="35" height="140"/><rect x="214" y="529" width="70" height="70"/><rect x="249" y="424" width="35" height="175"/><rect x="249" y="634" width="70" height="35"/><rect x="284" y="109" width="35" height="210"/><rect x="284" y="424" width="105" height="35"/><rect x="284" y="564" width="35" height="35"/><rect x="284" y="739" width="35" height="210"/><rect x="319" y="389" width="35" height="105"/><rect x="319" y="529" width="70" height="35"/><rect x="354" y="144" width="35" height="210"/><rect x="354" y="459" width="175" height="35"/><rect x="354" y="564" width="35" height="140"/><rect x="354" y="739" width="35" height="140"/><rect x="354" y="914" width="35" height="35"/><rect x="389" y="74" width="70" height="105"/><rect x="389" y="214" width="35" height="35"/><rect x="389" y="354" width="105" height="35"/><rect x="389" y="494" width="105" height="35"/><rect x="389" y="564" width="35" height="105"/><rect x="389" y="809" width="35" height="35"/><rect x="389" y="879" width="35" height="35"/><rect x="424" y="284" width="35" height="105"/><rect x="424" y="529" width="35" height="70"/><rect x="424" y="739" width="70" height="70"/><rect x="424" y="844" width="35" height="35"/><rect x="424" y="914" width="175" height="35"/><rect x="459" y="144" width="35" height="70"/><rect x="459" y="249" width="105" height="35"/><rect x="459" y="389" width="35" height="140"/><rect x="459" y="704" width="35" height="105"/><rect x="494" y="74" width="35" height="105"/><rect x="494" y="284" width="35" height="70"/><rect x="494" y="424" width="35" height="70"/><rect x="494" y="529" width="70" height="35"/><rect x="494" y="599" width="35" height="70"/><rect x="494" y="704" width="70" height="35"/><rect x="494" y="774" width="70" height="70"/><rect x="529" y="179" width="140" height="35"/><rect x="529" y="354" width="70" height="70"/><rect x="529" y="494" width="35" height="105"/><rect x="529" y="634" width="280" height="35"/><rect x="529" y="844" width="70" height="35"/><rect x="564" y="109" width="35" height="140"/><rect x="564" y="284" width="35" height="35"/><rect x="564" y="459" width="35" height="35"/><rect x="564" y="564" width="70" height="35"/><rect x="564" y="739" width="35" height="70"/><rect x="564" y="879" width="35" height="70"/><rect x="599" y="109" width="35" height="35"/><rect x="599" y="249" width="70" height="35"/><rect x="599" y="319" width="35" height="70"/><rect x="599" y="424" width="35" height="35"/><rect x="599" y="494" width="140" height="35"/><rect x="599" y="599" width="70" height="105"/><rect x="599" y="774" width="35" height="70"/><rect x="599" y="879" width="70" height="35"/><rect x="634" y="74" width="35" height="35"/><rect x="634" y="144" width="35" height="210"/><rect x="634" y="389" width="35" height="35"/><rect x="634" y="529" width="70" height="35"/><rect x="634" y="704" width="35" height="105"/><rect x="634" y="844" width="35" height="70"/><rect x="669" y="459" width="35" height="105"/><rect x="669" y="774" width="70" height="70"/><rect x="669" y="914" width="280" height="35"/><rect x="704" y="74" width="35" height="245"/><rect x="704" y="354" width="175" height="35"/><rect x="704" y="424" width="35" height="105"/><rect x="704" y="564" width="140" height="35"/><rect x="704" y="704" width="35" height="35"/><rect x="704" y="879" width="140" height="70"/><rect x="739" y="74" width="210" height="35"/><rect x="739" y="284" width="210" height="35"/><rect x="739" y="389" width="35" height="35"/><rect x="739" y="529" width="35" height="140"/><rect x="739" y="774" width="70" height="35"/><rect x="774" y="144" width="105" height="105"/><rect x="774" y="459" width="35" height="70"/><rect x="774" y="599" width="35" height="245"/><rect x="809" y="424" width="35" height="35"/><rect x="809" y="529" width="35" height="70"/><rect x="809" y="669" width="35" height="35"/><rect x="809" y="739" width="35" height="35"/><rect x="809" y="809" width="35" height="140"/><rect x="844" y="494" width="105" height="35"/><rect x="844" y="634" width="35" height="35"/><rect x="844" y="704" width="105" height="35"/><rect x="844" y="774" width="35" height="105"/><rect x="879" y="389" width="35" height="70"/><rect x="879" y="529" width="35" height="70"/><rect x="879" y="809" width="70" height="35"/><rect x="914" y="109" width="35" height="210"/><rect x="914" y="424" width="35" height="105"/><rect x="914" y="564" width="35" height="70"/><rect x="914" y="739" width="35" height="35"/><rect x="914" y="844" width="35" height="105"/></svg>